<svg width="420" height="421" viewBox="0 0 420 421" fill="none" xmlns="http://www.w3.org/2000/svg">
<path d="M210 210.5C210.001 212.474 209.559 214.422 208.707 216.201C207.856 217.981 206.615 219.545 205.078 220.778L139.453 273.403C138.107 274.483 136.561 275.287 134.905 275.768C133.248 276.249 131.514 276.398 129.8 276.207C128.086 276.016 126.426 275.489 124.916 274.655C123.405 273.821 122.073 272.697 120.996 271.348C119.919 269.998 119.117 268.449 118.637 266.788C118.157 265.128 118.008 263.389 118.199 261.671C118.389 259.953 118.915 258.29 119.747 256.776C120.579 255.262 121.7 253.926 123.047 252.847L175.859 210.5L123.047 168.153C121.7 167.074 120.579 165.738 119.747 164.224C118.915 162.71 118.389 161.047 118.199 159.329C118.008 157.611 118.157 155.872 118.637 154.212C119.117 152.551 119.919 151.002 120.996 149.652C122.073 148.303 123.405 147.179 124.916 146.345C126.426 145.511 128.086 144.984 129.8 144.793C131.514 144.602 133.248 144.751 134.905 145.232C136.561 145.713 138.107 146.517 139.453 147.597L205.078 200.222C206.615 201.455 207.856 203.019 208.707 204.799C209.559 206.578 210.001 208.526 210 210.5ZM288.75 249.969H223.125C219.644 249.969 216.306 251.355 213.844 253.822C211.383 256.289 210 259.636 210 263.125C210 266.614 211.383 269.961 213.844 272.428C216.306 274.895 219.644 276.281 223.125 276.281H288.75C292.231 276.281 295.569 274.895 298.031 272.428C300.492 269.961 301.875 266.614 301.875 263.125C301.875 259.636 300.492 256.289 298.031 253.822C295.569 251.355 292.231 249.969 288.75 249.969ZM380.625 92.0938V328.906C380.625 335.885 377.859 342.577 372.937 347.512C368.014 352.447 361.337 355.219 354.375 355.219H65.625C58.6631 355.219 51.9863 352.447 47.0634 347.512C42.1406 342.577 39.375 335.885 39.375 328.906V92.0938C39.375 85.1152 42.1406 78.4226 47.0634 73.488C51.9863 68.5535 58.6631 65.7813 65.625 65.7812H354.375C361.337 65.7813 368.014 68.5535 372.937 73.488C377.859 78.4226 380.625 85.1152 380.625 92.0938ZM354.375 328.906V92.0938H65.625V328.906H354.375Z" fill="url(#paint0_linear_1_4)"/>
<defs>
<linearGradient id="paint0_linear_1_4" x1="58" y1="84" x2="381" y2="384" gradientUnits="userSpaceOnUse">
<stop offset="0.411483" stop-color="#C561F6"/>
</linearGradient>
</defs>
</svg>
